<svg xmlns="http://www.w3.org/2000/svg" viewBox="0 0 290.98 30.34"><defs><style>.cls-1{fill:#009fe3;}.cls-2{fill:#fff;}</style></defs><title>splash_logotype</title><g id="Layer_2" data-name="Layer 2"><g id="Ebene_1" data-name="Ebene 1"><polygon class="cls-1" points="100.08 0 92.66 22.01 85.22 0 77.37 0 77.37 30.33 83.78 30.33 83.78 12.17 89.95 30.32 95.36 30.32 101.53 12.17 101.53 30.33 107.94 30.33 107.94 0 100.08 0"/><path class="cls-2" d="M173.55,30.34c-7.38,0-11.11-3.78-11.11-9.29V9.3c0-5.6,3.73-9.29,11.11-9.29a53.7,53.7,0,0,1,9.7,1l-.82,6a71.55,71.55,0,0,0-8.88-.73c-3.41,0-4.28,1.78-4.28,4.14v9.52c0,2.37.87,4.33,4.28,4.33a27.37,27.37,0,0,0,4.06-.27V12.44H184V28.88a38.49,38.49,0,0,1-10.47,1.46"/><path class="cls-1" d="M72.81,0v21c0,4.6-2.87,9.29-11.43,9.29s-11.43-4.69-11.43-9.29V0h6.83v20.4c0,2.46,1.19,3.87,4.6,3.87S66,22.87,66,20.41V0Z"/><path class="cls-2" d="M265.8,0v21c0,4.6-2.87,9.29-11.43,9.29s-11.43-4.69-11.43-9.29V0h6.83v20.4c0,2.46,1.18,3.87,4.6,3.87s4.6-1.41,4.6-3.87V0Z"/><polygon class="cls-1" points="131.58 0.01 131.58 5.52 119.33 5.52 119.33 12.44 131.6 12.44 131.6 17.77 119.33 17.77 119.33 24.82 131.58 24.82 131.58 30.34 112.5 30.34 112.5 0.01 131.58 0.01"/><polygon class="cls-1" points="45.37 0.01 45.37 5.52 33.12 5.52 33.12 12.44 45.39 12.44 45.39 17.77 33.12 17.77 33.12 24.82 45.37 24.82 45.37 30.34 26.29 30.34 26.29 0.01 45.37 0.01"/><path class="cls-2" d="M231.54,9.88c0-2.37-1.5-3.83-4.92-3.83s-4.92,1.46-4.92,3.83V20.44c0,2.37,1.5,3.82,4.92,3.82s4.92-1.46,4.92-3.82ZM238.38,21c0,4.6-3.19,9.29-11.75,9.29S214.88,25.63,214.88,21V9.29c0-4.6,3.19-9.29,11.75-9.29s11.75,4.69,11.75,9.29Z"/><path class="cls-2" d="M277.19,5.52h4.23c1.92,0,2.73.82,2.73,2.14V10.3c0,1.32-.82,2.14-2.73,2.14h-4.23ZM291,6V5.9h0c-.28-3.66-2.69-5.9-8.63-5.9h-12V30.34h6.83V17.95h5.14c6.33,0,8.64-2.55,8.64-6.65,0,0,0-5.1,0-5.33"/><path class="cls-1" d="M6.83,5.52h4.23c2.14,0,3.83.46,3.83,2.64V9.89c0,1.69-1,2.55-2.87,2.55H6.83Zm8.06,16.67c0,2.19-1.68,2.64-3.83,2.64H6.83V17.77H12c1.82,0,2.87.87,2.87,2.55ZM21.72,8.92V7.25C21.72,3,19,0,12.94,0H0V30.34H12.94c6.06,0,8.79-3,8.79-7.24v-3a5.73,5.73,0,0,0-4.46-5.6h0l0,0a5.73,5.73,0,0,0,4.42-5.59"/><path class="cls-2" d="M195.42,5.52h4.23c2.14,0,3.83.46,3.83,2.64V9.89c0,1.69-1,2.55-2.87,2.55h-5.19Zm0,19.31V17.77h5.19c1.82,0,2.87.87,2.87,2.55v10h6.83V20.13a5.73,5.73,0,0,0-4.46-5.6h0l0,0a5.73,5.73,0,0,0,4.42-5.59V7.25C210.32,3,207.58,0,201.53,0H188.59V30.34h6.83Z"/><path class="cls-1" d="M143,5.52h4.24c2.14,0,3.83.46,3.83,2.64V9.89c0,1.69-1,2.55-2.87,2.55H143Zm0,19.31V17.77h5.2c1.82,0,2.87.87,2.87,2.55v10h6.83V20.13a5.73,5.73,0,0,0-4.46-5.6h0l0,0a5.73,5.73,0,0,0,4.42-5.59V7.25C157.88,3,155.15,0,149.1,0H136.16V30.34H143Z"/></g></g></svg>