<svg xmlns="http://www.w3.org/2000/svg" viewBox="0 0 12.82 82.3"><defs><style>.cls-1{fill:#009fe3;}</style></defs><title>splash_arrow</title><g id="Layer_2" data-name="Layer 2"><g id="Ebene_1" data-name="Ebene 1"><path class="cls-1" d="M9.08,61.46a20.46,20.46,0,0,1-2.67.19,20.45,20.45,0,0,1-2.67-.19V67H0L6.41,82.3,12.82,67H9.08Z"/><path class="cls-1" d="M3.74,20.82a20.44,20.44,0,0,1,2.67-.2,20.45,20.45,0,0,1,2.67.2V15.28l2.18-2.17V0L6.41,4.86,1.56,0V13.12l2.18,2.17Z"/><path class="cls-1" d="M6.41,26a15.22,15.22,0,0,0-2.67.25V56.06a15.22,15.22,0,0,0,2.67.25,15.24,15.24,0,0,0,2.67-.25V26.22A15.24,15.24,0,0,0,6.41,26"/></g></g></svg>